<svg xmlns="http://www.w3.org/2000/svg" viewBox="0 0 24 24" fill="none">
    <path d="M6.5 16.9149L7.18342 16.1849C6.99813 16.0114 6.75382 15.9149 6.5 15.9149V16.9149ZM6.5 7.08511V8.08511C6.75382 8.08511 6.99813 7.98859 7.18342 7.81513L6.5 7.08511ZM0.5 9.58511V14.4149H2.5V9.58511H0.5ZM4 17.9149H6.5V15.9149H4V17.9149ZM5.81658 17.6449L10.2123 21.7601L11.5791 20.3L7.18342 16.1849L5.81658 17.6449ZM14 20.1175V3.88249H12V20.1175H14ZM10.2123 2.23994L5.81658 6.35508L7.18342 7.81513L11.5791 3.69999L10.2123 2.23994ZM6.5 6.08511H4V8.08511H6.5V6.08511ZM14 3.88249C14 1.91351 11.6497 0.894294 10.2123 2.23994L11.5791 3.69999C11.7389 3.55047 12 3.66372 12 3.88249H14ZM10.2123 21.7601C11.6497 23.1057 14 22.0865 14 20.1175H12C12 20.3363 11.7389 20.4495 11.5791 20.3L10.2123 21.7601ZM0.5 14.4149C0.5 16.3479 2.067 17.9149 4 17.9149V15.9149C3.17157 15.9149 2.5 15.2433 2.5 14.4149H0.5ZM2.5 9.58511C2.5 8.75668 3.17157 8.08511 4 8.08511V6.08511C2.067 6.08511 0.5 7.65211 0.5 9.58511H2.5Z" fill="white"></path>
    <path d="M19.75 5C21.578 6.771 22.714 9.253 22.714 12C22.714 14.747 21.578 17.229 19.75 19" stroke="white" stroke-width="2" stroke-linecap="round" stroke-linejoin="round" fill="none"></path>
    <path d="M16.75 7.5C17.985 8.65399 18.75 10.253 18.75 12.0217C18.75 13.7678 18.003 15.3498 16.795 16.5" stroke="white" stroke-width="2" stroke-linecap="round" stroke-linejoin="round" fill="none"></path>
  </svg>
